# xmcd
#
# Track frame offsets:
#	150
#	10938
#	17141
#	32545
#	44011
#	56314
#	64457
#	76290
#	88593
#	100290
#	107466
#	119991
#	128689
#	142313
#	150366
#
# Disc length: 2147 seconds
#
# Revision: 0
# Processed by: cddbd v1.5.2PL0 Copyright (c) Steve Scherf et al.
# Submitted via: EasyCDDAExtractor 16.0.8.1
#
DISCID=c808610f
DTITLE=JIM REEVES - COUNTRY TO GOSPEL
DYEAR=2014
DGENRE=COUNTRY GOSPEL
TTITLE0=HE'LL HAVE TO GO
TTITLE1=HAVE I TOLD YOU LATELY THAT I LOVE YOU
TTITLE2=MAKING BELIEVE
TTITLE3=JUST CALL ME LONESOME
TTITLE4=MEXICAN JOE
TTITLE5=BIMBO
TTITLE6=AM I LOSING YOU
TTITLE7=FOUR WALLS
TTITLE8=ROLY POLY
TTITLE9=I'M BEGINNING TO FORGET
TTITLE10=YOUR OLD LOVE LETTERS
TTITLE11=YONDER COMES A SUCKER
TTITLE12=HOW'S THE WORLD TREATING YOU
TTITLE13=BLUE BOY
TTITLE14=I MISSED ME
EXTD=
EXTT0=
EXTT1=
EXTT2=
EXTT3=
EXTT4=
EXTT5=
EXTT6=
EXTT7=
EXTT8=
EXTT9=
EXTT10=
EXTT11=
EXTT12=
EXTT13=
EXTT14=
PLAYORDER=
